<svg width="8" height="5" viewBox="0 0 8 5" fill="none" xmlns="http://www.w3.org/2000/svg">
<path d="M1.27594 3.99654C1.20132 4.06782 1.08156 4.06781 1.00694 3.99655C0.931018 3.92404 0.931021 3.80579 1.00694 3.73328L3.8655 1.00311L3.86549 1.0031L1.2414 3.96039M1.27594 3.99654L1.2414 3.96039M1.27594 3.99654L1.27593 3.99655L1.2414 3.96039M1.27594 3.99654L4.00067 1.39547M1.2414 3.96039L4.00068 1.32634M4.00067 1.39547L3.96615 1.3625L4.00068 1.32634M4.00067 1.39547L6.72407 3.99655C6.79869 4.06782 6.91845 4.06782 6.99306 3.99654C7.06897 3.92404 7.06899 3.80579 6.99306 3.73328M4.00067 1.39547L4.03521 1.36251L4.00068 1.32634M4.00068 1.32634L6.99306 3.73328M6.99306 3.73328L6.99307 3.73329L6.95853 3.76944L6.99306 3.73328Z" fill="#464646" stroke="#464646" stroke-width="0.1"/>
</svg>
