<svg width="8" height="5" viewBox="0 0 8 5" fill="none" xmlns="http://www.w3.org/2000/svg">
<path d="M1.27594 1.00346C1.20132 0.932177 1.08156 0.932194 1.00694 1.00345C0.931018 1.07596 0.931021 1.19421 1.00694 1.26672L3.8655 3.99689L3.86549 3.9969L1.2414 1.03961M1.27594 1.00346L1.2414 1.03961M1.27594 1.00346L1.27593 1.00345L1.2414 1.03961M1.27594 1.00346L4.00067 3.60453M1.2414 1.03961L4.00068 3.67366M4.00067 3.60453L3.96615 3.6375L4.00068 3.67366M4.00067 3.60453L6.72407 1.00345C6.79869 0.932183 6.91845 0.93218 6.99306 1.00346C7.06897 1.07596 7.06899 1.19421 6.99306 1.26672M4.00067 3.60453L4.03521 3.63749L4.00068 3.67366M4.00068 3.67366L6.99306 1.26672M6.99306 1.26672L6.99307 1.26671L6.95853 1.23056L6.99306 1.26672Z" fill="#464646" stroke="#464646" stroke-width="0.1"/>
</svg>
